<mxfile host="Electron" agent="Mozilla/5.0 (Windows NT 10.0; Win64; x64) AppleWebKit/537.36 (KHTML, like Gecko) draw.io/28.0.4 Chrome/138.0.7204.97 Electron/37.2.1 Safari/537.36" version="28.0.4">
  <diagram id="d1" name="Запись пациента">
    <mxGraphModel dx="2066" dy="1201" grid="1" gridSize="10" guides="1" tooltips="1" connect="1" arrows="1" fold="1" page="1" pageScale="1" pageWidth="1200" pageHeight="800" math="0" shadow="0">
      <root>
        <mxCell id="0" />
        <mxCell id="1" parent="0" />
        <mxCell id="pat" value="Пациент" style="shape=ellipse;whiteSpace=wrap;html=1;" parent="1" vertex="1">
          <mxGeometry x="40" y="200" width="120" height="60" as="geometry" />
        </mxCell>
        <mxCell id="proc" value="Ресепшен запись" style="shape=process;rounded=1;whiteSpace=wrap;html=1;" parent="1" vertex="1">
          <mxGeometry x="240" y="190" width="200" height="80" as="geometry" />
        </mxCell>
        <mxCell id="excel" value="Журнал записей Excel" style="shape=cylinder;whiteSpace=wrap;html=1;boundedLbl=1;" parent="1" vertex="1">
          <mxGeometry x="540" y="180" width="190" height="100" as="geometry" />
        </mxCell>
        <mxCell id="mail" value="Outlook почта" style="shape=rectangle;whiteSpace=wrap;html=1;" parent="1" vertex="1">
          <mxGeometry x="160" y="460" width="190" height="70" as="geometry" />
        </mxCell>
        <mxCell id="e1" value="Данные записи" style="endArrow=classic;html=1;" parent="1" source="pat" target="proc" edge="1">
          <mxGeometry relative="1" as="geometry" />
        </mxCell>
        <mxCell id="e2" value="Запись" style="endArrow=classic;html=1;" parent="1" source="proc" target="excel" edge="1">
          <mxGeometry relative="1" as="geometry" />
        </mxCell>
        <mxCell id="e3" value="Уведомления" style="endArrow=classic;html=1;" parent="1" source="proc" target="mail" edge="1">
          <mxGeometry relative="1" as="geometry" />
        </mxCell>
        <mxCell id="e4" value="Письма клиента" style="endArrow=classic;html=1;" parent="1" source="pat" target="mail" edge="1">
          <mxGeometry relative="1" as="geometry" />
        </mxCell>
        <mxCell id="tag1" value="Тег ПДн высокий" style="shape=note;whiteSpace=wrap;html=1;fillColor=#fff2cc;strokeColor=#d6b656;" parent="1" vertex="1">
          <mxGeometry x="710" y="120" width="160" height="50" as="geometry" />
        </mxCell>
        <mxCell id="ctrl1" value="Контроль RBAC" style="shape=note;whiteSpace=wrap;html=1;fillColor=#dae8fc;strokeColor=#6c8ebf;" parent="1" vertex="1">
          <mxGeometry x="250" y="110" width="160" height="50" as="geometry" />
        </mxCell>
        <mxCell id="ctrl2" value="Аудит" style="shape=note;whiteSpace=wrap;html=1;fillColor=#e1d5e7;strokeColor=#9673a6;" parent="1" vertex="1">
          <mxGeometry x="20" y="350" width="120" height="40" as="geometry" />
        </mxCell>
      </root>
    </mxGraphModel>
  </diagram>
</mxfile>
